solid piano_inferiore_grezzo_170x160x3_mm
  facet normal 0 0 -1
    outer loop
      vertex -80 -85 0
      vertex 80 85 0
      vertex 80 -85 0
    endloop
  endfacet
  facet normal 0 0 -1
    outer loop
      vertex -80 -85 0
      vertex -80 85 0
      vertex 80 85 0
    endloop
  endfacet
  facet normal 0 0 1
    outer loop
      vertex -80 -85 3
      vertex 80 -85 3
      vertex 80 85 3
    endloop
  endfacet
  facet normal 0 0 1
    outer loop
      vertex -80 -85 3
      vertex 80 85 3
      vertex -80 85 3
    endloop
  endfacet
  facet normal 0 -1 0
    outer loop
      vertex -80 -85 0
      vertex 80 -85 0
      vertex 80 -85 3
    endloop
  endfacet
  facet normal 0 -1 0
    outer loop
      vertex -80 -85 0
      vertex 80 -85 3
      vertex -80 -85 3
    endloop
  endfacet
  facet normal 0 1 0
    outer loop
      vertex -80 85 0
      vertex 80 85 3
      vertex 80 85 0
    endloop
  endfacet
  facet normal 0 1 0
    outer loop
      vertex -80 85 0
      vertex -80 85 3
      vertex 80 85 3
    endloop
  endfacet
  facet normal -1 0 0
    outer loop
      vertex -80 -85 0
      vertex -80 -85 3
      vertex -80 85 3
    endloop
  endfacet
  facet normal -1 0 0
    outer loop
      vertex -80 -85 0
      vertex -80 85 3
      vertex -80 85 0
    endloop
  endfacet
  facet normal 1 0 0
    outer loop
      vertex 80 -85 0
      vertex 80 85 3
      vertex 80 -85 3
    endloop
  endfacet
  facet normal 1 0 0
    outer loop
      vertex 80 -85 0
      vertex 80 85 0
      vertex 80 85 3
    endloop
  endfacet
endsolid piano_inferiore_grezzo_170x160x3_mm
